<mxfile host="app.diagrams.net" agent="Mozilla/5.0 (Windows NT 10.0; Win64; x64) AppleWebKit/537.36 (KHTML, like Gecko) Chrome/125.0.0.0 Safari/537.36 OPR/111.0.0.0" version="24.7.6">
  <diagram name="Page-1" id="tDwcQx7iFqer2LaT-Bka">
    <mxGraphModel dx="1333" dy="698" grid="1" gridSize="10" guides="1" tooltips="1" connect="1" arrows="1" fold="1" page="1" pageScale="1" pageWidth="850" pageHeight="1100" math="0" shadow="0">
      <root>
        <mxCell id="0" />
        <mxCell id="1" parent="0" />
        <mxCell id="UU7fJBS6EWTqr7NkkSWP-1" value="Vault-Tec" style="ellipse;aspect=fixed;strokeWidth=2;whiteSpace=wrap;" vertex="1" parent="1">
          <mxGeometry x="20" y="43" width="80" height="80" as="geometry" />
        </mxCell>
        <mxCell id="UU7fJBS6EWTqr7NkkSWP-2" value="Research" style="rounded=1;absoluteArcSize=1;arcSize=14;whiteSpace=wrap;strokeWidth=2;" vertex="1" parent="1">
          <mxGeometry x="165" y="20" width="80" height="38" as="geometry" />
        </mxCell>
        <mxCell id="UU7fJBS6EWTqr7NkkSWP-3" value="Development" style="rounded=1;absoluteArcSize=1;arcSize=14;whiteSpace=wrap;strokeWidth=2;" vertex="1" parent="1">
          <mxGeometry x="150" y="108" width="110" height="38" as="geometry" />
        </mxCell>
        <mxCell id="UU7fJBS6EWTqr7NkkSWP-4" value="Testing" style="rhombus;strokeWidth=2;whiteSpace=wrap;" vertex="1" parent="1">
          <mxGeometry x="310" y="30" width="105" height="105" as="geometry" />
        </mxCell>
        <mxCell id="UU7fJBS6EWTqr7NkkSWP-5" value="Implementation" style="rounded=1;absoluteArcSize=1;arcSize=14;whiteSpace=wrap;strokeWidth=2;" vertex="1" parent="1">
          <mxGeometry x="465" y="64" width="130" height="38" as="geometry" />
        </mxCell>
        <mxCell id="UU7fJBS6EWTqr7NkkSWP-6" value="" style="curved=1;startArrow=none;endArrow=block;exitX=1;exitY=0.16;entryX=0;entryY=0.49;rounded=0;" edge="1" parent="1" source="UU7fJBS6EWTqr7NkkSWP-1" target="UU7fJBS6EWTqr7NkkSWP-2">
          <mxGeometry relative="1" as="geometry">
            <Array as="points">
              <mxPoint x="125" y="39" />
            </Array>
          </mxGeometry>
        </mxCell>
        <mxCell id="UU7fJBS6EWTqr7NkkSWP-7" value="" style="curved=1;startArrow=none;endArrow=block;exitX=1;exitY=0.83;entryX=0;entryY=0.48;rounded=0;" edge="1" parent="1" source="UU7fJBS6EWTqr7NkkSWP-1" target="UU7fJBS6EWTqr7NkkSWP-3">
          <mxGeometry relative="1" as="geometry">
            <Array as="points">
              <mxPoint x="125" y="126" />
            </Array>
          </mxGeometry>
        </mxCell>
        <mxCell id="UU7fJBS6EWTqr7NkkSWP-8" value="" style="curved=1;startArrow=none;endArrow=block;exitX=1;exitY=0.49;entryX=0;entryY=0.22;rounded=0;" edge="1" parent="1" source="UU7fJBS6EWTqr7NkkSWP-2" target="UU7fJBS6EWTqr7NkkSWP-4">
          <mxGeometry relative="1" as="geometry">
            <Array as="points">
              <mxPoint x="285" y="39" />
            </Array>
          </mxGeometry>
        </mxCell>
        <mxCell id="UU7fJBS6EWTqr7NkkSWP-9" value="" style="curved=1;startArrow=none;endArrow=block;exitX=1;exitY=0.48;entryX=0;entryY=0.78;rounded=0;" edge="1" parent="1" source="UU7fJBS6EWTqr7NkkSWP-3" target="UU7fJBS6EWTqr7NkkSWP-4">
          <mxGeometry relative="1" as="geometry">
            <Array as="points">
              <mxPoint x="285" y="126" />
            </Array>
          </mxGeometry>
        </mxCell>
        <mxCell id="UU7fJBS6EWTqr7NkkSWP-10" value="" style="curved=1;startArrow=none;endArrow=block;exitX=1;exitY=0.5;entryX=0;entryY=0.49;rounded=0;" edge="1" parent="1" source="UU7fJBS6EWTqr7NkkSWP-4" target="UU7fJBS6EWTqr7NkkSWP-5">
          <mxGeometry relative="1" as="geometry">
            <Array as="points" />
          </mxGeometry>
        </mxCell>
      </root>
    </mxGraphModel>
  </diagram>
</mxfile>
